<svg width="249" height="168" viewBox="0 0 249 168" fill="none" xmlns="http://www.w3.org/2000/svg">
<path opacity="0.1" d="M247.876 79.6273C247.085 80.8881 247.349 86.4454 244.446 87.2355C241.527 88.0387 233.329 84.3339 232.276 87.2355C231.209 90.1588 224.856 94.6538 225.659 96.5062C226.449 98.3586 226.449 105.755 224.856 106.282C223.266 106.822 179.079 124.538 178.816 127.444C178.552 130.368 178.552 134.336 178.816 135.925C179.079 137.501 183.851 140.42 183.851 141.206C183.851 141.996 183.851 144.384 185.164 144.911C186.49 145.437 195.487 142.531 195.487 142.531C195.487 142.531 204.185 139.876 204.725 141.676C205.131 142.976 203.688 144.647 203.688 147.031C203.688 149.41 202.898 150.736 200.523 151.526C198.13 152.316 192.057 149.673 190.986 149.673C189.937 149.673 185.968 157.083 184.374 157.083C182.785 157.083 178.025 154.427 176.699 157.083C175.386 159.726 170.346 167.127 166.114 166.604C161.881 166.077 158.979 164.221 159.242 163.167C159.506 162.1 165.591 151.526 159.506 149.673C153.416 147.821 145.478 148.883 145.737 147.294C146 145.697 161.618 136.711 161.881 134.332C162.144 131.952 158.715 130.89 157.912 130.627C157.121 130.363 144.419 131.417 142.83 131.154C141.241 130.89 135.959 125.601 135.959 123.485C135.959 121.369 132.244 119.517 130.655 119.517C129.066 119.517 122.851 120.043 121.335 122.418C119.81 124.798 115.31 134.332 110.555 136.706C105.782 139.086 103.407 138.032 103.407 140.675C103.407 143.317 105.26 145.433 105.26 146.763C105.26 148.076 103.143 151.781 103.143 151.781C103.143 151.781 100.5 145.429 99.1741 145.165C97.8482 144.902 94.1468 147.549 92.0306 148.615C89.9143 149.665 83.5654 148.615 82.7664 144.639C81.976 140.67 85.1461 140.407 87.5259 138.818C89.9186 137.229 94.9372 132.997 94.6738 130.618C94.4103 128.239 93.607 121.624 96.2631 122.673C98.9106 123.74 109.756 126.641 109.492 124.789C109.229 122.937 108.965 116.326 106.05 114.737C103.148 113.161 98.3881 106.269 96.79 101.774C95.2007 97.2791 98.1246 93.8377 96.79 92.5251C95.4641 91.1994 90.1777 89.8652 86.4721 88.2891C82.7664 86.7001 82.2395 81.9417 77.7391 81.9417C73.2431 81.9417 61.5992 83.5178 57.3623 87.2226C53.1298 90.936 42.5526 93.3109 39.9094 94.1141C37.249 94.9043 33.0164 89.6018 24.0287 89.075C15.0323 88.5482 12.6525 87.2226 8.94687 85.1068C5.24121 82.991 1 73.4785 1 73.4785C1 73.4785 1.95881 71.7945 3.20266 69.7996C4.97344 66.9886 7.33158 63.5731 8.41996 63.4177C10.2598 63.1543 11.5858 65.0067 11.3223 61.0385C11.1927 59.3199 11.115 57.7179 11.0718 56.388C11.02 54.6479 11.0718 53.4043 11.3482 53.102C11.8449 52.5752 24.0243 38.0237 27.73 36.9615C31.4357 35.9122 31.9626 32.7299 30.8958 29.8196C29.8463 26.9006 27.4665 20.0307 27.4665 18.7051C27.4665 17.3924 24.5469 13.1522 27.2031 12.3534C29.8463 11.5632 35.9317 12.09 36.7177 9.71078C37.5211 7.33158 38.5706 7.59498 38.5706 7.59498C38.5706 7.59498 57.6215 6.80479 68.2072 10.773C78.793 14.7326 78.5295 16.3259 83.8289 16.8613C89.1109 17.3881 93.3435 20.0264 93.3435 20.0264C93.3435 20.0264 95.7233 16.3216 97.8439 16.3216C99.9602 16.3216 101.023 19.4996 103.402 19.4996C105.782 19.4996 110.274 17.9106 111.868 18.6965C113.457 19.4996 112.934 22.9281 115.31 22.9281C117.694 22.9281 117.171 19.4996 116.623 17.1204C116.096 14.7283 117.551 7.06387 121.335 6.53708C125.096 5.99733 131.717 5.21146 134.361 6.53708C137.008 7.84974 139.651 3.61813 139.928 2.02912C140.191 0.453064 143.357 1.23893 145.737 2.02912C148.129 2.83226 155.796 0.466017 158.175 1.11371C160.555 1.76572 166.917 10.4923 166.114 12.8845C165.323 15.268 162.144 14.7326 162.144 14.7326C162.144 14.7326 163.613 22.669 166.183 22.9324C168.757 23.2088 174.846 23.4721 176.177 23.7355C177.503 23.9989 181.459 39.3407 184.115 40.1395C186.758 40.9297 190.464 37.7603 192.321 38.8139C194.174 39.8804 203.162 36.4606 207.394 37.2378C211.631 38.028 211.894 43.3089 213.747 44.1077C215.6 44.8979 219.833 43.568 219.833 43.568C219.833 43.568 243.375 45.6838 245.232 49.652C247.085 53.6288 242.866 58.2145 242.343 60.6067C241.816 62.9859 246.217 61.3018 246.826 64.2035C247.56 67.7011 245.081 68.8324 243.967 69.7953C243.453 70.2314 243.233 70.6373 243.729 71.2159C244.256 71.8204 244.969 72.8179 245.677 73.9233C247.085 76.1427 248.42 78.7853 247.876 79.6273Z" fill="white" stroke="#0C1057" stroke-miterlimit="10"/>
</svg>
