<svg width="78" height="48" viewBox="0 0 78 48" fill="none" xmlns="http://www.w3.org/2000/svg">
<mask id="path-1-inside-1_654_2" fill="white">
<path d="M28.0687 25.9018C25.1425 28.9072 21.4714 28.6219 18.408 25.7814C16.5473 24.0544 8.91308 17.1562 4.03809 19.69C5.66126 14.8992 6.89366 11.0442 9.16931 7.13226C12.8646 0.786363 21.8431 -0.34352 27.7493 4.49015C31.0097 7.15838 34.1843 11.0134 37.8803 14.4677C37.8803 14.4677 33.1246 20.7088 28.0687 25.9022"/>
</mask>
<path d="M28.0687 25.9018C25.1425 28.9072 21.4714 28.6219 18.408 25.7814C16.5473 24.0544 8.91308 17.1562 4.03809 19.69C5.66126 14.8992 6.89366 11.0442 9.16931 7.13226C12.8646 0.786363 21.8431 -0.34352 27.7493 4.49015C31.0097 7.15838 34.1843 11.0134 37.8803 14.4677C37.8803 14.4677 33.1246 20.7088 28.0687 25.9022" fill="black"/>
<path d="M18.408 25.7814L17.7277 26.5143L17.7281 26.5147L18.408 25.7814ZM4.03809 19.69L3.09097 19.3691L2.29313 21.7239L4.49926 20.5773L4.03809 19.69ZM9.16931 7.13226L8.30514 6.62906L8.30492 6.62943L9.16931 7.13226ZM27.7493 4.49015L27.1159 5.26402L27.1159 5.26404L27.7493 4.49015ZM37.8803 14.4677L38.6757 15.0738L39.2237 14.3546L38.5631 13.7371L37.8803 14.4677ZM27.3522 25.2042C26.0552 26.5364 24.6667 27.0752 23.3202 27.0343C21.954 26.9927 20.4909 26.3489 19.0879 25.0481L17.7281 26.5147C19.3886 28.0543 21.2927 28.9735 23.2594 29.0333C25.2459 29.0938 27.156 28.2726 28.7852 26.5994L27.3522 25.2042ZM19.0883 25.0484C18.1495 24.1771 15.7103 21.9583 12.8618 20.2768C11.4379 19.4362 9.86667 18.7025 8.29499 18.3537C6.71918 18.0041 5.06943 18.0269 3.57691 18.8027L4.49926 20.5773C5.44424 20.0861 6.57689 20.0211 7.86174 20.3062C9.15072 20.5923 10.5184 21.2159 11.8451 21.9991C14.4976 23.5649 16.8058 25.6587 17.7277 26.5143L19.0883 25.0484ZM4.9852 20.0109C6.61832 15.1907 7.81909 11.4421 10.0337 7.63509L8.30492 6.62943C5.96823 10.6463 4.7042 14.6077 3.09097 19.3691L4.9852 20.0109ZM10.0335 7.63547C13.3757 1.89583 21.6167 0.763353 27.1159 5.26402L28.3826 3.71628C22.0696 -1.45039 12.3534 -0.323106 8.30514 6.62906L10.0335 7.63547ZM27.1159 5.26404C28.6947 6.55604 30.2663 8.14701 31.9307 9.87739C33.5826 11.5947 35.3246 13.4479 37.1975 15.1983L38.5631 13.7371C36.7399 12.0332 35.0467 10.2318 33.3721 8.4909C31.7102 6.76314 30.0643 5.09249 28.3826 3.71627L27.1159 5.26404ZM37.8803 14.4677C37.0849 13.8616 37.0849 13.8616 37.0849 13.8616C37.0849 13.8617 37.0849 13.8617 37.0848 13.8618C37.0847 13.8619 37.0845 13.8621 37.0843 13.8624C37.0838 13.8631 37.083 13.8641 37.082 13.8655C37.0798 13.8683 37.0766 13.8726 37.0722 13.8783C37.0634 13.8898 37.0501 13.9071 37.0324 13.9301C36.9971 13.9761 36.9444 14.0447 36.8752 14.134C36.7369 14.3127 36.5332 14.5745 36.2727 14.9052C35.7516 15.5667 35.0038 16.5033 34.0988 17.6014C32.2866 19.8003 29.8532 22.6356 27.3522 25.2046L28.7852 26.5998C31.3401 23.9754 33.8125 21.0935 35.6422 18.8734C36.558 17.7621 37.3152 16.8139 37.8438 16.1429C38.1081 15.8073 38.3154 15.541 38.4569 15.3581C38.5277 15.2666 38.582 15.196 38.6189 15.148C38.6373 15.1241 38.6513 15.1057 38.6608 15.0933C38.6656 15.0871 38.6692 15.0823 38.6717 15.0791C38.6729 15.0774 38.6739 15.0762 38.6745 15.0753C38.6749 15.0749 38.6751 15.0745 38.6753 15.0743C38.6754 15.0742 38.6755 15.074 38.6756 15.074C38.6756 15.0739 38.6757 15.0738 37.8803 14.4677Z" fill="black" mask="url(#path-1-inside-1_654_2)"/>
<mask id="path-3-inside-2_654_2" fill="white">
<path d="M68.0136 6.4962C67.9999 6.47359 67.9863 6.45293 67.9707 6.43072C64.0426 0.709196 53.4093 -0.217238 48.1587 4.9142C43.7408 9.23496 29.81 33.1426 22.6523 31.414C26.0149 35.0625 29.3276 38.4584 32.6948 41.3277C33.9186 42.3703 35.5555 43.1942 37.1256 43.5126C41.7335 44.448 45.4018 42.5733 48.3712 39.1034C51.4955 35.4515 54.4942 31.6806 57.7975 28.1904C62.2782 23.453 67.1513 19.4 75.023 23.1708C72.683 17.1297 71.2876 11.3182 68.0136 6.49464"/>
</mask>
<path d="M68.0136 6.4962C67.9999 6.47359 67.9863 6.45293 67.9707 6.43072C64.0426 0.709196 53.4093 -0.217238 48.1587 4.9142C43.7408 9.23496 29.81 33.1426 22.6523 31.414C26.0149 35.0625 29.3276 38.4584 32.6948 41.3277C33.9186 42.3703 35.5555 43.1942 37.1256 43.5126C41.7335 44.448 45.4018 42.5733 48.3712 39.1034C51.4955 35.4515 54.4942 31.6806 57.7975 28.1904C62.2782 23.453 67.1513 19.4 75.023 23.1708C72.683 17.1297 71.2876 11.3182 68.0136 6.49464" fill="black"/>
<path d="M67.9707 6.43072L67.1462 6.99674L67.1523 7.00539L67.9707 6.43072ZM48.1587 4.9142L47.4597 4.19903L47.4595 4.19928L48.1587 4.9142ZM22.6523 31.414L22.8871 30.442L19.6835 29.6683L21.917 32.0918L22.6523 31.414ZM32.6948 41.3277L32.0462 42.0889L32.0463 42.0889L32.6948 41.3277ZM37.1256 43.5126L37.3246 42.5326L37.3244 42.5326L37.1256 43.5126ZM48.3712 39.1034L49.131 39.7536L49.1311 39.7535L48.3712 39.1034ZM57.7975 28.1904L58.5238 28.8778L58.524 28.8776L57.7975 28.1904ZM75.023 23.1708L74.591 24.0727L76.8671 25.163L75.9555 22.8097L75.023 23.1708ZM68.8696 5.97929C68.842 5.93358 68.8153 5.89349 68.7891 5.85605L67.1523 7.00539C67.1551 7.00936 67.1564 7.01135 67.1569 7.01205C67.1572 7.01264 67.1574 7.01284 67.1575 7.0131L68.8696 5.97929ZM68.7951 5.86472C66.6112 2.68382 62.6476 0.927329 58.6406 0.605803C54.6274 0.28378 50.3433 1.38089 47.4597 4.19903L48.8576 5.62938C51.2246 3.31607 54.8825 2.31068 58.4806 2.5994C62.0849 2.88861 65.402 4.45609 67.1463 6.99671L68.7951 5.86472ZM47.4595 4.19928C46.2783 5.35447 44.52 7.74713 42.5055 10.535C40.4604 13.3652 38.0953 16.6849 35.6453 19.8164C33.1902 22.9545 30.6875 25.8541 28.3808 27.8549C27.2271 28.8556 26.1589 29.5991 25.2025 30.0412C24.2429 30.4848 23.4828 30.5858 22.8871 30.442L22.4176 32.3861C23.6113 32.6744 24.8523 32.4064 26.0418 31.8566C27.2345 31.3052 28.4635 30.4307 29.6913 29.3657C32.1478 27.2349 34.746 24.2116 37.2205 21.0488C39.7002 17.8794 42.0935 14.5201 44.1266 11.7064C46.1903 8.85039 47.8301 6.63432 48.8579 5.62913L47.4595 4.19928ZM21.917 32.0918C25.2884 35.7497 28.633 39.1804 32.0462 42.0889L33.3434 40.5666C30.0221 37.7364 26.7415 34.3753 23.3877 30.7363L21.917 32.0918ZM32.0463 42.0889C33.3911 43.2346 35.1807 44.1386 36.9269 44.4927L37.3244 42.5326C35.9302 42.2499 34.4462 41.506 33.3433 40.5665L32.0463 42.0889ZM36.9267 44.4927C41.9865 45.5198 45.9972 43.4156 49.131 39.7536L47.6115 38.4532C44.8064 41.7311 41.4804 43.3763 37.3246 42.5326L36.9267 44.4927ZM49.1311 39.7535C52.2871 36.0645 55.243 32.3443 58.5238 28.8778L57.0712 27.503C53.7455 31.017 50.704 34.8384 47.6114 38.4533L49.1311 39.7535ZM58.524 28.8776C60.7597 26.5139 62.9716 24.4607 65.5184 23.4151C67.9951 22.3983 70.886 22.2979 74.591 24.0727L75.4551 22.269C71.2883 20.273 67.8068 20.3137 64.7588 21.565C61.781 22.7875 59.3161 25.1296 57.071 27.5033L58.524 28.8776ZM75.9555 22.8097C75.3774 21.317 74.8563 19.8355 74.3456 18.3665C73.8365 16.9023 73.3357 15.4451 72.8053 14.026C71.744 11.1866 70.5438 8.44177 68.841 5.93303L67.1862 7.05625C68.7574 9.37104 69.8919 11.9437 70.9319 14.7262C71.4521 16.1182 71.9435 17.548 72.4565 19.0233C72.9678 20.4938 73.4987 22.0041 74.0905 23.532L75.9555 22.8097Z" fill="black" mask="url(#path-3-inside-2_654_2)"/>
<mask id="path-5-inside-3_654_2" fill="white">
<path d="M12.6282 47.8024C12.1744 47.8606 11.716 47.8755 11.2594 47.8468C4.27407 47.3538 -0.764327 41.4463 0.0956217 34.6288C0.504341 31.3908 1.33582 28.6162 2.26831 25.4635C3.10096 22.6468 4.59972 22.036 6.43155 22.1506C12.0374 22.5014 21.6193 30.1175 22.7394 37.3165C23.3458 41.214 19.6584 46.1783 14.9597 47.411C14.1407 47.6262 13.2916 47.7228 12.6282 47.8008"/>
</mask>
<path d="M12.6282 47.8024C12.1744 47.8606 11.716 47.8755 11.2594 47.8468C4.27407 47.3538 -0.764327 41.4463 0.0956217 34.6288C0.504341 31.3908 1.33582 28.6162 2.26831 25.4635C3.10096 22.6468 4.59972 22.036 6.43155 22.1506C12.0374 22.5014 21.6193 30.1175 22.7394 37.3165C23.3458 41.214 19.6584 46.1783 14.9597 47.411C14.1407 47.6262 13.2916 47.7228 12.6282 47.8008" fill="black"/>
<path d="M11.2594 47.8468L11.1889 48.8443L11.1967 48.8448L11.2594 47.8468ZM0.0956217 34.6288L-0.896506 34.5036L-0.896517 34.5037L0.0956217 34.6288ZM2.26831 25.4635L3.22724 25.7471L3.22729 25.747L2.26831 25.4635ZM6.43155 22.1506L6.494 21.1526L6.49398 21.1526L6.43155 22.1506ZM22.7394 37.3165L21.7513 37.4703L21.7513 37.4703L22.7394 37.3165ZM14.9597 47.411L14.7059 46.4438L14.7056 46.4439L14.9597 47.411ZM12.501 46.8105C12.1101 46.8606 11.7153 46.8734 11.322 46.8488L11.1967 48.8448C11.7167 48.8775 12.2387 48.8605 12.7555 48.7942L12.501 46.8105ZM11.3298 46.8493C4.88691 46.3945 0.303346 40.9727 1.08776 34.754L-0.896517 34.5037C-1.832 41.92 3.66123 48.313 11.1889 48.8443L11.3298 46.8493ZM1.08775 34.7541C1.48466 31.6096 2.29121 28.9118 3.22724 25.7471L1.30937 25.1799C0.380426 28.3206 -0.475978 31.172 -0.896506 34.5036L1.08775 34.7541ZM3.22729 25.747C3.60561 24.4671 4.08932 23.8454 4.54482 23.5298C4.99704 23.2164 5.5734 23.0989 6.36912 23.1487L6.49398 21.1526C5.45788 21.0878 4.36894 21.2184 3.40566 21.8859C2.44565 22.5511 1.76365 23.6431 1.30933 25.18L3.22729 25.747ZM6.3691 23.1487C8.84863 23.3038 12.4393 25.1288 15.607 27.9162C18.7644 30.6946 21.243 34.2034 21.7513 37.4703L23.7275 37.1628C23.1157 33.2306 20.2433 29.3319 16.9282 26.4147C13.6235 23.5067 9.62032 21.3482 6.494 21.1526L6.3691 23.1487ZM21.7513 37.4703C21.9994 39.065 21.3727 41.0115 20.0434 42.7572C18.7243 44.4894 16.8082 45.8922 14.7059 46.4438L15.2134 48.3783C17.8098 47.6971 20.0868 46.0014 21.6345 43.9689C23.172 41.9499 24.0858 39.4656 23.7275 37.1628L21.7513 37.4703ZM14.7056 46.4439C13.9658 46.6382 13.187 46.7283 12.5115 46.8076L12.7449 48.794C13.3963 48.7174 14.3156 48.6142 15.2137 48.3782L14.7056 46.4439Z" fill="black" mask="url(#path-5-inside-3_654_2)"/>
<mask id="path-7-inside-4_654_2" fill="white">
<path d="M77.9999 35.657C77.9722 41.1438 74.346 46.1182 69.4472 47.3884C64.0083 48.7989 58.3989 46.5247 56.0616 41.5422C55.3495 40.0221 55.2267 37.244 55.8783 35.7813C57.5436 31.1101 61.2689 26.635 65.9345 25.1579C72.4576 23.0922 77.9075 26.7473 77.9999 35.6577"/>
</mask>
<path d="M77.9999 35.657C77.9722 41.1438 74.346 46.1182 69.4472 47.3884C64.0083 48.7989 58.3989 46.5247 56.0616 41.5422C55.3495 40.0221 55.2267 37.244 55.8783 35.7813C57.5436 31.1101 61.2689 26.635 65.9345 25.1579C72.4576 23.0922 77.9075 26.7473 77.9999 35.6577" fill="white"/>
<path d="M69.4472 47.3884L69.1962 46.4204L69.1962 46.4204L69.4472 47.3884ZM56.0616 41.5422L55.1561 41.9664L55.1563 41.9669L56.0616 41.5422ZM55.8783 35.7813L56.7918 36.1882L56.8074 36.1532L56.8203 36.1171L55.8783 35.7813ZM65.9345 25.1579L66.2363 26.1112L66.2364 26.1112L65.9345 25.1579ZM76.9999 35.6519C76.9742 40.7385 73.6061 45.277 69.1962 46.4204L69.6982 48.3564C75.0859 46.9594 78.9702 41.5492 78.9999 35.662L76.9999 35.6519ZM69.1962 46.4204C64.1629 47.7257 59.0744 45.6101 56.967 41.1175L55.1563 41.9669C57.7234 47.4393 63.8537 49.8721 69.6982 48.3564L69.1962 46.4204ZM56.9672 41.1179C56.687 40.5198 56.4933 39.5899 56.4579 38.6044C56.4223 37.6106 56.5535 36.7231 56.7918 36.1882L54.9649 35.3743C54.5515 36.3022 54.4183 37.5351 54.4592 38.6761C54.5004 39.8253 54.7242 41.0445 55.1561 41.9664L56.9672 41.1179ZM56.8203 36.1171C58.4143 31.6459 61.9533 27.4673 66.2363 26.1112L65.6326 24.2045C60.5846 25.8028 56.673 30.5744 54.9364 35.4455L56.8203 36.1171ZM66.2364 26.1112C69.2589 25.1541 71.8815 25.5594 73.7502 27.0695C75.6333 28.5914 76.9557 31.4006 77 35.6681L78.9998 35.6474C78.9517 31.0044 77.503 27.5309 75.0073 25.514C72.4971 23.4854 69.1332 23.096 65.6326 24.2045L66.2364 26.1112Z" fill="black" mask="url(#path-7-inside-4_654_2)"/>
<mask id="path-9-inside-5_654_2" fill="white">
<path d="M77.9999 35.657C77.9722 41.1438 74.346 46.1182 69.4472 47.3884C64.0083 48.7989 58.3989 46.5247 56.0616 41.5422C55.3495 40.0221 55.2267 37.244 55.8783 35.7813C57.5436 31.1101 61.2689 26.635 65.9345 25.1579C72.4576 23.0922 77.9075 26.7473 77.9999 35.6577"/>
</mask>
<path d="M77.9999 35.657C77.9722 41.1438 74.346 46.1182 69.4472 47.3884C64.0083 48.7989 58.3989 46.5247 56.0616 41.5422C55.3495 40.0221 55.2267 37.244 55.8783 35.7813C57.5436 31.1101 61.2689 26.635 65.9345 25.1579C72.4576 23.0922 77.9075 26.7473 77.9999 35.6577" fill="black"/>
<path d="M69.4472 47.3884L69.1962 46.4204L69.1962 46.4204L69.4472 47.3884ZM56.0616 41.5422L55.1561 41.9664L55.1563 41.9669L56.0616 41.5422ZM55.8783 35.7813L56.7918 36.1882L56.8074 36.1532L56.8203 36.1171L55.8783 35.7813ZM65.9345 25.1579L66.2363 26.1112L66.2364 26.1112L65.9345 25.1579ZM76.9999 35.6519C76.9742 40.7385 73.6061 45.277 69.1962 46.4204L69.6982 48.3564C75.0859 46.9594 78.9702 41.5492 78.9999 35.662L76.9999 35.6519ZM69.1962 46.4204C64.1629 47.7257 59.0744 45.6101 56.967 41.1175L55.1563 41.9669C57.7234 47.4393 63.8537 49.8721 69.6982 48.3564L69.1962 46.4204ZM56.9672 41.1179C56.687 40.5198 56.4933 39.5899 56.4579 38.6044C56.4223 37.6106 56.5535 36.7231 56.7918 36.1882L54.9649 35.3743C54.5515 36.3022 54.4183 37.5351 54.4592 38.6761C54.5004 39.8253 54.7242 41.0445 55.1561 41.9664L56.9672 41.1179ZM56.8203 36.1171C58.4143 31.6459 61.9533 27.4673 66.2363 26.1112L65.6326 24.2045C60.5846 25.8028 56.673 30.5744 54.9364 35.4455L56.8203 36.1171ZM66.2364 26.1112C69.2589 25.1541 71.8815 25.5594 73.7502 27.0695C75.6333 28.5914 76.9557 31.4006 77 35.6681L78.9998 35.6474C78.9517 31.0044 77.503 27.5309 75.0073 25.514C72.4971 23.4854 69.1332 23.096 65.6326 24.2045L66.2364 26.1112Z" fill="black" mask="url(#path-9-inside-5_654_2)"/>
<path d="M27.7104 24.053C26.3304 25.4704 24.8115 26.0799 23.305 26.034C21.7887 25.9879 20.2153 25.2753 18.748 23.9147C17.8133 23.0472 15.4069 20.8598 12.6076 19.2073C11.208 18.3811 9.68768 17.6749 8.18668 17.3419C7.0599 17.0918 5.92334 17.048 4.85377 17.3386C6.3183 13.0031 7.51627 9.46826 9.6015 5.88368C13.1203 -0.158926 21.73 -1.29004 27.4326 3.37709L27.7493 2.99015L27.4326 3.37709C29.0371 4.69015 30.6272 6.30104 32.2911 8.03077C32.5382 8.28772 32.787 8.54728 33.0376 8.80872C34.3673 10.1961 35.7477 11.6364 37.2077 13.0212C37.0725 13.1955 36.8899 13.4296 36.6655 13.7146C36.1425 14.3784 35.3924 15.3179 34.4846 16.4192C32.6681 18.6233 30.225 21.4701 27.7104 24.053Z" fill="white" stroke="black"/>
<mask id="path-12-inside-6_654_2" fill="white">
<path d="M68.0136 4.9962C67.9999 4.97359 67.9863 4.95293 67.9707 4.93072C64.0426 -0.790804 53.4093 -1.71724 48.1587 3.4142C43.7408 7.73496 29.81 31.6426 22.6523 29.914C26.0149 33.5625 29.3276 36.9584 32.6948 39.8277C33.9186 40.8703 35.5555 41.6942 37.1256 42.0126C41.7335 42.948 45.4018 41.0733 48.3712 37.6034C51.4955 33.9515 54.4942 30.1806 57.7975 26.6904C62.2782 21.953 67.1513 17.9 75.023 21.6708C72.683 15.6297 71.2876 9.81818 68.0136 4.99464"/>
</mask>
<path d="M68.0136 4.9962C67.9999 4.97359 67.9863 4.95293 67.9707 4.93072C64.0426 -0.790804 53.4093 -1.71724 48.1587 3.4142C43.7408 7.73496 29.81 31.6426 22.6523 29.914C26.0149 33.5625 29.3276 36.9584 32.6948 39.8277C33.9186 40.8703 35.5555 41.6942 37.1256 42.0126C41.7335 42.948 45.4018 41.0733 48.3712 37.6034C51.4955 33.9515 54.4942 30.1806 57.7975 26.6904C62.2782 21.953 67.1513 17.9 75.023 21.6708C72.683 15.6297 71.2876 9.81818 68.0136 4.99464" fill="#FDE512"/>
<path d="M67.9707 4.93072L67.1462 5.49674L67.1523 5.50539L67.9707 4.93072ZM48.1587 3.4142L47.4597 2.69903L47.4595 2.69928L48.1587 3.4142ZM22.6523 29.914L22.8871 28.942L19.6835 28.1683L21.917 30.5918L22.6523 29.914ZM32.6948 39.8277L32.0462 40.5889L32.0463 40.5889L32.6948 39.8277ZM37.1256 42.0126L37.3246 41.0326L37.3244 41.0326L37.1256 42.0126ZM48.3712 37.6034L49.131 38.2536L49.1311 38.2535L48.3712 37.6034ZM57.7975 26.6904L58.5238 27.3778L58.524 27.3776L57.7975 26.6904ZM75.023 21.6708L74.591 22.5727L76.8671 23.663L75.9555 21.3097L75.023 21.6708ZM68.8696 4.47929C68.842 4.43358 68.8153 4.39349 68.7891 4.35605L67.1523 5.50539C67.1551 5.50936 67.1564 5.51135 67.1569 5.51205C67.1572 5.51264 67.1574 5.51284 67.1575 5.5131L68.8696 4.47929ZM68.7951 4.36472C66.6112 1.18382 62.6476 -0.572671 58.6406 -0.894197C54.6274 -1.21622 50.3433 -0.119109 47.4597 2.69903L48.8576 4.12938C51.2246 1.81607 54.8825 0.810681 58.4806 1.0994C62.0849 1.38861 65.402 2.95609 67.1463 5.49671L68.7951 4.36472ZM47.4595 2.69928C46.2783 3.85447 44.52 6.24713 42.5055 9.03501C40.4604 11.8652 38.0953 15.1849 35.6453 18.3164C33.1902 21.4545 30.6875 24.3541 28.3808 26.3549C27.2271 27.3556 26.1589 28.0991 25.2025 28.5412C24.2429 28.9848 23.4828 29.0858 22.8871 28.942L22.4176 30.8861C23.6113 31.1744 24.8523 30.9064 26.0418 30.3566C27.2345 29.8052 28.4635 28.9307 29.6913 27.8657C32.1478 25.7349 34.746 22.7116 37.2205 19.5488C39.7002 16.3794 42.0935 13.0201 44.1266 10.2064C46.1903 7.35039 47.8301 5.13432 48.8579 4.12913L47.4595 2.69928ZM21.917 30.5918C25.2884 34.2497 28.633 37.6804 32.0462 40.5889L33.3434 39.0666C30.0221 36.2364 26.7415 32.8753 23.3877 29.2363L21.917 30.5918ZM32.0463 40.5889C33.3911 41.7346 35.1807 42.6386 36.9269 42.9927L37.3244 41.0326C35.9302 40.7499 34.4462 40.006 33.3433 39.0665L32.0463 40.5889ZM36.9267 42.9927C41.9865 44.0198 45.9972 41.9156 49.131 38.2536L47.6115 36.9532C44.8064 40.2311 41.4804 41.8763 37.3246 41.0326L36.9267 42.9927ZM49.1311 38.2535C52.2871 34.5645 55.243 30.8443 58.5238 27.3778L57.0712 26.003C53.7455 29.517 50.704 33.3384 47.6114 36.9533L49.1311 38.2535ZM58.524 27.3776C60.7597 25.0139 62.9716 22.9607 65.5184 21.9151C67.9951 20.8983 70.886 20.7979 74.591 22.5727L75.4551 20.769C71.2883 18.773 67.8068 18.8137 64.7588 20.065C61.781 21.2875 59.3161 23.6296 57.071 26.0033L58.524 27.3776ZM75.9555 21.3097C75.3774 19.817 74.8563 18.3355 74.3456 16.8665C73.8365 15.4023 73.3357 13.9451 72.8053 12.526C71.744 9.68663 70.5438 6.94177 68.841 4.43303L67.1862 5.55625C68.7574 7.87104 69.8919 10.4437 70.9319 13.2262C71.4521 14.6182 71.9435 16.048 72.4565 17.5233C72.9678 18.9938 73.4987 20.5041 74.0905 22.032L75.9555 21.3097Z" fill="black" mask="url(#path-12-inside-6_654_2)"/>
<mask id="path-14-inside-7_654_2" fill="white">
<path d="M12.6282 46.3024C12.1744 46.3606 11.716 46.3755 11.2594 46.3468C4.27407 45.8538 -0.764327 39.9463 0.0956217 33.1288C0.504341 29.8908 1.33582 27.1162 2.26831 23.9635C3.10096 21.1468 4.59972 20.536 6.43155 20.6506C12.0374 21.0014 21.6193 28.6175 22.7394 35.8165C23.3458 39.714 19.6584 44.6783 14.9597 45.911C14.1407 46.1262 13.2916 46.2228 12.6282 46.3008"/>
</mask>
<path d="M12.6282 46.3024C12.1744 46.3606 11.716 46.3755 11.2594 46.3468C4.27407 45.8538 -0.764327 39.9463 0.0956217 33.1288C0.504341 29.8908 1.33582 27.1162 2.26831 23.9635C3.10096 21.1468 4.59972 20.536 6.43155 20.6506C12.0374 21.0014 21.6193 28.6175 22.7394 35.8165C23.3458 39.714 19.6584 44.6783 14.9597 45.911C14.1407 46.1262 13.2916 46.2228 12.6282 46.3008" fill="#FDE512"/>
<path d="M11.2594 46.3468L11.1889 47.3443L11.1967 47.3448L11.2594 46.3468ZM0.0956217 33.1288L-0.896506 33.0036L-0.896517 33.0037L0.0956217 33.1288ZM2.26831 23.9635L3.22724 24.2471L3.22729 24.247L2.26831 23.9635ZM6.43155 20.6506L6.494 19.6526L6.49398 19.6526L6.43155 20.6506ZM22.7394 35.8165L21.7513 35.9703L21.7513 35.9703L22.7394 35.8165ZM14.9597 45.911L14.7059 44.9438L14.7056 44.9439L14.9597 45.911ZM12.501 45.3105C12.1101 45.3606 11.7153 45.3734 11.322 45.3488L11.1967 47.3448C11.7167 47.3775 12.2387 47.3605 12.7555 47.2942L12.501 45.3105ZM11.3298 45.3493C4.88691 44.8945 0.303346 39.4727 1.08776 33.254L-0.896517 33.0037C-1.832 40.42 3.66123 46.813 11.1889 47.3443L11.3298 45.3493ZM1.08775 33.2541C1.48466 30.1096 2.29121 27.4118 3.22724 24.2471L1.30937 23.6799C0.380426 26.8206 -0.475978 29.672 -0.896506 33.0036L1.08775 33.2541ZM3.22729 24.247C3.60561 22.9671 4.08932 22.3454 4.54482 22.0298C4.99704 21.7164 5.5734 21.5989 6.36912 21.6487L6.49398 19.6526C5.45788 19.5878 4.36894 19.7184 3.40566 20.3859C2.44565 21.0511 1.76365 22.1431 1.30933 23.68L3.22729 24.247ZM6.3691 21.6487C8.84863 21.8038 12.4393 23.6288 15.607 26.4162C18.7644 29.1946 21.243 32.7034 21.7513 35.9703L23.7275 35.6628C23.1157 31.7306 20.2433 27.8319 16.9282 24.9147C13.6235 22.0067 9.62032 19.8482 6.494 19.6526L6.3691 21.6487ZM21.7513 35.9703C21.9994 37.565 21.3727 39.5115 20.0434 41.2572C18.7243 42.9894 16.8082 44.3922 14.7059 44.9438L15.2134 46.8783C17.8098 46.1971 20.0868 44.5014 21.6345 42.4689C23.172 40.4499 24.0858 37.9656 23.7275 35.6628L21.7513 35.9703ZM14.7056 44.9439C13.9658 45.1382 13.187 45.2283 12.5115 45.3076L12.7449 47.294C13.3963 47.2174 14.3156 47.1142 15.2137 46.8782L14.7056 44.9439Z" fill="black" mask="url(#path-14-inside-7_654_2)"/>
<mask id="path-16-inside-8_654_2" fill="white">
<path d="M77.9999 34.157C77.9722 39.6438 74.346 44.6182 69.4472 45.8884C64.0083 47.2989 58.3989 45.0247 56.0616 40.0422C55.3495 38.5221 55.2267 35.744 55.8783 34.2813C57.5436 29.6101 61.2689 25.135 65.9345 23.6579C72.4576 21.5922 77.9075 25.2473 77.9999 34.1577"/>
</mask>
<path d="M77.9999 34.157C77.9722 39.6438 74.346 44.6182 69.4472 45.8884C64.0083 47.2989 58.3989 45.0247 56.0616 40.0422C55.3495 38.5221 55.2267 35.744 55.8783 34.2813C57.5436 29.6101 61.2689 25.135 65.9345 23.6579C72.4576 21.5922 77.9075 25.2473 77.9999 34.1577" fill="white"/>
<path d="M69.4472 45.8884L69.1962 44.9204L69.1962 44.9204L69.4472 45.8884ZM56.0616 40.0422L55.1561 40.4664L55.1563 40.4669L56.0616 40.0422ZM55.8783 34.2813L56.7918 34.6882L56.8074 34.6532L56.8203 34.6171L55.8783 34.2813ZM65.9345 23.6579L66.2363 24.6112L66.2364 24.6112L65.9345 23.6579ZM76.9999 34.1519C76.9742 39.2385 73.6061 43.777 69.1962 44.9204L69.6982 46.8564C75.0859 45.4594 78.9702 40.0492 78.9999 34.162L76.9999 34.1519ZM69.1962 44.9204C64.1629 46.2257 59.0744 44.1101 56.967 39.6175L55.1563 40.4669C57.7234 45.9393 63.8537 48.3721 69.6982 46.8564L69.1962 44.9204ZM56.9672 39.6179C56.687 39.0198 56.4933 38.0899 56.4579 37.1044C56.4223 36.1106 56.5535 35.2231 56.7918 34.6882L54.9649 33.8743C54.5515 34.8022 54.4183 36.0351 54.4592 37.1761C54.5004 38.3253 54.7242 39.5445 55.1561 40.4664L56.9672 39.6179ZM56.8203 34.6171C58.4143 30.1459 61.9533 25.9673 66.2363 24.6112L65.6326 22.7045C60.5846 24.3028 56.673 29.0744 54.9364 33.9455L56.8203 34.6171ZM66.2364 24.6112C69.2589 23.6541 71.8815 24.0594 73.7502 25.5695C75.6333 27.0914 76.9557 29.9006 77 34.1681L78.9998 34.1474C78.9517 29.5044 77.503 26.0309 75.0073 24.014C72.4971 21.9854 69.1332 21.596 65.6326 22.7045L66.2364 24.6112Z" fill="black" mask="url(#path-16-inside-8_654_2)"/>
<mask id="path-18-inside-9_654_2" fill="white">
<path d="M77.9999 34.157C77.9722 39.6438 74.346 44.6182 69.4472 45.8884C64.0083 47.2989 58.3989 45.0247 56.0616 40.0422C55.3495 38.5221 55.2267 35.744 55.8783 34.2813C57.5436 29.6101 61.2689 25.135 65.9345 23.6579C72.4576 21.5922 77.9075 25.2473 77.9999 34.1577"/>
</mask>
<path d="M77.9999 34.157C77.9722 39.6438 74.346 44.6182 69.4472 45.8884C64.0083 47.2989 58.3989 45.0247 56.0616 40.0422C55.3495 38.5221 55.2267 35.744 55.8783 34.2813C57.5436 29.6101 61.2689 25.135 65.9345 23.6579C72.4576 21.5922 77.9075 25.2473 77.9999 34.1577" fill="white"/>
<path d="M69.4472 45.8884L69.1962 44.9204L69.1962 44.9204L69.4472 45.8884ZM56.0616 40.0422L55.1561 40.4664L55.1563 40.4669L56.0616 40.0422ZM55.8783 34.2813L56.7918 34.6882L56.8074 34.6532L56.8203 34.6171L55.8783 34.2813ZM65.9345 23.6579L66.2363 24.6112L66.2364 24.6112L65.9345 23.6579ZM76.9999 34.1519C76.9742 39.2385 73.6061 43.777 69.1962 44.9204L69.6982 46.8564C75.0859 45.4594 78.9702 40.0492 78.9999 34.162L76.9999 34.1519ZM69.1962 44.9204C64.1629 46.2257 59.0744 44.1101 56.967 39.6175L55.1563 40.4669C57.7234 45.9393 63.8537 48.3721 69.6982 46.8564L69.1962 44.9204ZM56.9672 39.6179C56.687 39.0198 56.4933 38.0899 56.4579 37.1044C56.4223 36.1106 56.5535 35.2231 56.7918 34.6882L54.9649 33.8743C54.5515 34.8022 54.4183 36.0351 54.4592 37.1761C54.5004 38.3253 54.7242 39.5445 55.1561 40.4664L56.9672 39.6179ZM56.8203 34.6171C58.4143 30.1459 61.9533 25.9673 66.2363 24.6112L65.6326 22.7045C60.5846 24.3028 56.673 29.0744 54.9364 33.9455L56.8203 34.6171ZM66.2364 24.6112C69.2589 23.6541 71.8815 24.0594 73.7502 25.5695C75.6333 27.0914 76.9557 29.9006 77 34.1681L78.9998 34.1474C78.9517 29.5044 77.503 26.0309 75.0073 24.014C72.4971 21.9854 69.1332 21.596 65.6326 22.7045L66.2364 24.6112Z" fill="black" mask="url(#path-18-inside-9_654_2)"/>
</svg>
